# xmcd
# 
# Track frame offsets:
#     150
#     64405
#     87930
#     107465
#     125475
#     139427
#     159790
#     173737
#     192700
#     211834
#     232680
#     256360
# 
# Disc length: 3694
# 
# Revision: 5
# Processed by: cddbd v1.5.2PL0 Copyright (c) Steve Scherf et al.
# Submitted via: fre:ac v1.0.17
# 
DISCID=a20e6c0c
DTITLE=群星 - 拉闊音樂98
DYEAR=1998
DGENRE=Pop
TTITLE0=Medley 我的天我的歌 時間人物地點 一萬年 越吻越傷心
TTITLE1=夢醒時份 鄭中基
TTITLE2=原來你甚麼都不要 許志安
TTITLE3=半斤八兩 張學友
TTITLE4=偷閒加油站
TTITLE5=左右為難
TTITLE6=天變把變情不變 鄭中基
TTITLE7=心碎了無痕 陳曉東
TTITLE8=夜了又破嘵 蘇永康
TTITLE9=怎麼捨得你 許志安
TTITLE10=真情流露
TTITLE11=甲乙丙丁
EXTD=
EXTT0=
EXTT1=
EXTT2=
EXTT3=
EXTT4=
EXTT5=
EXTT6=
EXTT7=
EXTT8=
EXTT9=
EXTT10=
EXTT11=
PLAYORDER=
